<svg xmlns="http://www.w3.org/2000/svg" width="70" height="70" viewBox="0 0 70 70">
  <metadata><?xpacket begin="﻿" id="W5M0MpCehiHzreSzNTczkc9d"?>
<x:xmpmeta xmlns:x="adobe:ns:meta/" x:xmptk="Adobe XMP Core 5.6-c142 79.160924, 2017/07/13-01:06:39        ">
   <rdf:RDF xmlns:rdf="http://www.w3.org/1999/02/22-rdf-syntax-ns#">
      <rdf:Description rdf:about=""/>
   </rdf:RDF>
</x:xmpmeta>
                                                                                                    
                                                                                                    
                                                                                                    
                                                                                                    
                                                                                                    
                                                                                                    
                                                                                                    
                                                                                                    
                                                                                                    
                                                                                                    
                                                                                                    
                                                                                                    
                                                                                                    
                                                                                                    
                                                                                                    
                                                                                                    
                                                                                                    
                                                                                                    
                                                                                                    
                                                                                                    
                           
<?xpacket end="w"?></metadata>
<defs>
    <style>
      .cls-1 {
        fill: #fff;
        fill-rule: evenodd;
      }
    </style>
  </defs>
  <path id="sunny" class="cls-1" d="M1457.07,212.06l-2.93,1.214,2.02,4.884a28.779,28.779,0,0,1,2.94-1.21l-2.03-4.888h0Zm-11.69,7.072-2.25,2.243,3.75,3.744a28.051,28.051,0,0,1,2.24-2.243l-3.74-3.744h0Zm-6.08,24.282H1434v3.172h5.3c-0.03-.525-0.05-1.054-0.05-1.586s0.02-1.061.05-1.586h0Zm-2.03-13.272-1.21,2.931,4.89,2.025a27.55,27.55,0,0,1,1.21-2.933l-4.89-2.023h0Zm55.35-11.01-3.74,3.744a28.051,28.051,0,0,1,2.24,2.243l3.75-3.744-2.25-2.243h0Zm-11.69-7.072-2.03,4.888a28.779,28.779,0,0,1,2.94,1.21l2.02-4.884-2.93-1.214h0ZM1470.59,210h-3.18V215.3q0.795-.042,1.59-0.043t1.59,0.043V210h0Zm30.14,20.139-4.89,2.023a27.55,27.55,0,0,1,1.21,2.933l4.89-2.025-1.21-2.931h0ZM1440.95,254.9l-4.89,2.024,1.21,2.931,4.89-2.023a27.62,27.62,0,0,1-1.21-2.932h0Zm56.1,0a27.62,27.62,0,0,1-1.21,2.932l4.89,2.024,1.21-2.932-4.89-2.024h0Zm-5.93,9.978a28.217,28.217,0,0,1-2.24,2.243l3.74,3.744,2.25-2.243-3.75-3.744h0ZM1504,243.414h-5.3c0.03,0.525.05,1.054,0.05,1.586s-0.02,1.061-.05,1.586h5.3v-3.172h0Zm-22.16,28.428a29.008,29.008,0,0,1-2.94,1.21l2.03,4.888,2.93-1.214-2.02-4.884h0Zm-34.96-6.961-3.75,3.744,2.25,2.243,3.74-3.744a28.217,28.217,0,0,1-2.24-2.243h0Zm9.28,6.961-2.02,4.884,2.93,1.214,2.03-4.888a29.008,29.008,0,0,1-2.94-1.21h0Zm14.43,2.862q-0.795.042-1.59,0.043t-1.59-.043V280h3.18V274.7h0ZM1469,221.592A23.408,23.408,0,1,1,1445.59,245,23.435,23.435,0,0,1,1469,221.592m0-2.84A26.248,26.248,0,1,0,1495.25,245,26.248,26.248,0,0,0,1469,218.752h0Z" transform="translate(-1434 -210)"/>
</svg>
